<svg xmlns="http://www.w3.org/2000/svg" xmlns:xlink="http://www.w3.org/1999/xlink" viewBox="0 0 2562 1602"><defs><linearGradient id="a" x1="1281.25" y1="1601" x2="1281.25" y2="1.5" gradientUnits="userSpaceOnUse"><stop offset="0" stop-color="#fff"/><stop offset="0" stop-color="#1619aa"/><stop offset="1" stop-color="#004cd0"/><stop offset="1"/></linearGradient><linearGradient id="b" x1="1779.08" y1="1600.5" x2="1779.08" y2="676.51" xlink:href="#a"/><linearGradient id="c" x1="1670.17" y1="701.13" x2="1715.37" y2="701.13" gradientUnits="userSpaceOnUse"><stop offset="0" stop-color="#fff"/><stop offset="0" stop-color="#3977d1"/><stop offset="1" stop-color="#004cd0" stop-opacity="0.2"/><stop offset="1" stop-color="#3977d1" stop-opacity="0.3"/></linearGradient><linearGradient id="d" x1="1848.45" y1="568.14" x2="1893.64" y2="568.14" xlink:href="#c"/><linearGradient id="e" x1="1498.45" y1="820.14" x2="1543.64" y2="820.14" xlink:href="#c"/><linearGradient id="f" x1="1" y1="164.7" x2="1286.1" y2="164.7" gradientUnits="userSpaceOnUse"><stop offset="0" stop-color="#cce0f4"/><stop offset="0.1" stop-color="#c3daf0" stop-opacity="0.99"/><stop offset="0.26" stop-color="#a9c9e4" stop-opacity="0.95"/><stop offset="0.48" stop-color="#80aed1" stop-opacity="0.89"/><stop offset="0.72" stop-color="#4689b7" stop-opacity="0.8"/><stop offset="0.99" stop-color="#005b97" stop-opacity="0.7"/></linearGradient><linearGradient id="g" x1="1684.81" y1="117.8" x2="2561" y2="117.8" xlink:href="#f"/><clipPath id="h"><rect x="1777.5" y="852.5" width="282" height="168" rx="10" ry="10" transform="translate(-211.64 1078.51) rotate(-29.83)" fill="none" stroke="#3977d1" stroke-miterlimit="10" stroke-width="2"/></clipPath><clipPath id="i"><rect x="1792" y="1176" width="65" height="119" rx="8.48" ry="8.48" fill="none" stroke="#3977d1" stroke-miterlimit="10" stroke-width="2"/></clipPath><linearGradient id="j" x1="1637.45" y1="1133.14" x2="1682.64" y2="1133.14" xlink:href="#c"/></defs><title>Fichier 5</title><rect x="1.5" y="1.5" width="2559.5" height="1599.5" stroke="#000" stroke-miterlimit="10" stroke-width="0.5" fill="url(#a)"/><path d="M2561.5,676.51v871.71q-28.87,26.67-59.18,52.28H996.66c78-130.54,237.32-269.3,355.77-347.31,223-146.9,288.58-70,577.58-224C2232.84,867.93,2254.1,733.85,2482.47,688A782,782,0,0,1,2561.5,676.51Z" stroke="#3977d1" stroke-miterlimit="10" fill="url(#b)"/><ellipse cx="1692.77" cy="701.13" rx="22.6" ry="23.99" opacity="0.52" fill="url(#c)"/><ellipse cx="1691.65" cy="701.13" rx="10.88" ry="11.55" fill="#3977d1"/><image width="2000" height="2000" transform="translate(1650 605) scale(0.04)" xlink:href="../Vue.js_Logo.svg.png"/><ellipse cx="1871.05" cy="568.14" rx="22.6" ry="23.99" opacity="0.52" fill="url(#d)"/><ellipse cx="1869.93" cy="568.14" rx="10.88" ry="11.55" fill="#3977d1"/><image width="1796" height="1229" transform="translate(1819 498) scale(0.03 0.03)" xlink:href="../LaravelLogo.png"/><ellipse cx="1521.05" cy="820.14" rx="22.6" ry="23.99" opacity="0.52" fill="url(#e)"/><ellipse cx="1519.93" cy="820.14" rx="10.88" ry="11.55" fill="#3977d1"/><image width="250" height="250" transform="translate(1495 740) scale(0.2)" xlink:href="../Dev/nuxtjs/portfolio/static/img/technologies/angular.png"/><path d="M1.5,1320.2c75,5.89,190,7.79,324.75-21.33,217-46.88,340.54-142.89,505.54-231C1127,910.1,1192.67,982.66,1454.51,854.57c214-104.69,254.22-192.84,422.67-290.58,132.41-76.82,343.72-141,683.82-65.76" fill="none" stroke="#3977d1" stroke-miterlimit="10" stroke-width="2"/><rect x="1" y="1" width="2560" height="1600" fill="none" stroke="#3977d1" stroke-miterlimit="10" stroke-width="2"/><path d="M1,1H1286.1c-93,52.43-201,136.39-446.1,218C614.37,294.14,262.89,411.19,21,240c-3.08-2.18-10.25-7.33-20-14.95Z" opacity="0.14" fill="url(#f)"/><path d="M2561,1V185.64c-111.14,40.21-275.91,63.08-431,39.36C1900.08,189.84,1814.76,71.16,1684.81,1Z" opacity="0.14" fill="url(#g)"/><g clip-path="url(#h)"><rect x="1948.16" y="825.83" width="54" height="33" rx="5.22" ry="5.22" transform="translate(-157.29 1094.21) rotate(-29.83)" fill="#3977d1" stroke="#3977d1" stroke-miterlimit="10" stroke-width="2"/><rect x="1963.04" y="868" width="32" height="10.45" rx="5.22" ry="5.22" transform="translate(-172.14 1100.24) rotate(-29.83)" fill="#3977d1" stroke="#3977d1" stroke-miterlimit="10" stroke-width="2"/><rect x="1970.21" y="878.89" width="44" height="10.45" rx="5.22" ry="5.22" transform="translate(-175.81 1108.23) rotate(-29.83)" fill="#3977d1" stroke="#3977d1" stroke-miterlimit="10" stroke-width="2"/><rect x="1784.06" y="924.32" width="154" height="13" rx="5.22" ry="5.22" transform="translate(-216.43 1049.18) rotate(-29.83)" fill="#3977d1" stroke="#3977d1" stroke-miterlimit="10" stroke-width="2"/><rect x="1774.87" y="916.82" width="90" height="13" rx="5.22" ry="5.22" transform="translate(-218.16 1027.69) rotate(-29.83)" fill="#3977d1" stroke="#3977d1" stroke-miterlimit="10" stroke-width="2"/><rect x="1799.68" y="955.95" width="121" height="13" rx="5.22" ry="5.22" transform="translate(-232.28 1052.93) rotate(-29.83)" fill="#3977d1" stroke="#3977d1" stroke-miterlimit="10" stroke-width="2"/><rect x="1816.66" y="989.95" width="73" height="13" rx="5.22" ry="5.22" transform="translate(-250.12 1053.95) rotate(-29.83)" fill="#3977d1" stroke="#3977d1" stroke-miterlimit="10" stroke-width="2"/></g><rect x="1777.5" y="852.5" width="282" height="168" rx="10" ry="10" transform="translate(-211.64 1078.51) rotate(-29.83)" fill="none" stroke="#3977d1" stroke-miterlimit="10" stroke-width="2"/><path d="M1885,599a498,498,0,0,1,55,218" fill="none" stroke="#3977d1" stroke-miterlimit="10" stroke-width="2" stroke-dasharray="12 12 12 12 12 12"/><path d="M1718.5,724.5a792.19,792.19,0,0,1,117,153" fill="none" stroke="#3977d1" stroke-miterlimit="10" stroke-width="2" stroke-dasharray="12 12 12 12 12 12"/><path d="M1544,832a415.25,415.25,0,0,1,109.15,19.59A440.83,440.83,0,0,1,1772.5,911.5" fill="none" stroke="#3977d1" stroke-miterlimit="10" stroke-width="2" stroke-dasharray="12 12 12 12 12 12"/><text transform="matrix(0.87, -0.49, 0.49, 0.87, 1975.58, 981.47)" font-size="18.62" fill="#3977d1" font-family="Montserrat-Regular, Montserrat">WEB APP</text><g clip-path="url(#i)"><rect x="1799" y="1192" width="18" height="9" rx="3.03" ry="3.03" fill="#3977d1"/><rect x="1799" y="1208" width="43" height="6.07" rx="3.03" ry="3.03" fill="#3977d1"/><rect x="1799" y="1226" width="21" height="3.15" rx="1.57" ry="1.57" fill="#3977d1"/><rect x="1799" y="1230.67" width="54" height="3.15" rx="1.57" ry="1.57" fill="#3977d1"/><rect x="1799" y="1235.85" width="32" height="3.15" rx="1.57" ry="1.57" fill="#3977d1"/><rect x="1799" y="1246" width="21" height="3.15" rx="1.57" ry="1.57" fill="#3977d1"/><rect x="1799" y="1250.67" width="54" height="3.15" rx="1.57" ry="1.57" fill="#3977d1"/><rect x="1799" y="1255.85" width="32" height="3.15" rx="1.57" ry="1.57" fill="#3977d1"/></g><rect x="1792" y="1176" width="65" height="119" rx="8.48" ry="8.48" fill="none" stroke="#3977d1" stroke-miterlimit="10" stroke-width="2"/><circle cx="1824.5" cy="1281.5" r="4.5" fill="#3977d1"/><ellipse cx="1660.05" cy="1133.14" rx="22.6" ry="23.99" opacity="0.52" fill="url(#j)"/><ellipse cx="1658.93" cy="1133.14" rx="10.88" ry="11.55" fill="#3977d1"/><image width="2000" height="674" transform="translate(1616 1080) scale(0.04)" xlink:href="../Dev/nuxtjs/portfolio/static/img/technologies/ionic.png"/><path d="M1694,1148a262.87,262.87,0,0,0,64,37c7.94,3.19,15.64,5.82,23,8" fill="none" stroke="#3977d1" stroke-miterlimit="10" stroke-width="2" stroke-dasharray="12 12 12 12 12 12"/></svg>