<svg xmlns="http://www.w3.org/2000/svg" xmlns:xlink="http://www.w3.org/1999/xlink" viewBox="0 0 2561 1600.25"><defs><linearGradient id="a" x1="1280.25" y1="1600" x2="1280.25" y2="0.5" gradientUnits="userSpaceOnUse"><stop offset="0" stop-color="#fff"/><stop offset="0" stop-color="#1619aa"/><stop offset="1" stop-color="#004cd0"/><stop offset="1"/></linearGradient><linearGradient id="b" y1="163.7" x2="1285.1" y2="163.7" gradientUnits="userSpaceOnUse"><stop offset="0" stop-color="#cce0f4"/><stop offset="0.1" stop-color="#c3daf0" stop-opacity="0.99"/><stop offset="0.26" stop-color="#a9c9e4" stop-opacity="0.95"/><stop offset="0.48" stop-color="#80aed1" stop-opacity="0.89"/><stop offset="0.72" stop-color="#4689b7" stop-opacity="0.8"/><stop offset="0.99" stop-color="#005b97" stop-opacity="0.7"/></linearGradient><linearGradient id="c" x1="1683.81" y1="116.8" x2="2560" y2="116.8" xlink:href="#b"/><linearGradient id="d" x1="1778.08" y1="1599.5" x2="1778.08" y2="675.51" xlink:href="#a"/></defs><title>Fichier 11</title><rect x="0.5" y="0.5" width="2559.5" height="1599.5" stroke="#000" stroke-miterlimit="10" stroke-width="0.5" stroke-dasharray="12 12 12 12 12 12" fill="url(#a)"/><path d="M0,0H1285.1c-93,52.43-201,136.39-446.1,218C613.37,293.14,261.89,410.19,20,239c-3.08-2.18-10.25-7.33-20-14.95Z" opacity="0.14" fill="url(#b)"/><path d="M2560,0V184.64c-111.14,40.21-275.91,63.08-431,39.36C1899.08,188.84,1813.76,70.16,1683.81,0Z" opacity="0.14" fill="url(#c)"/><path d="M2560.5,675.51v871.71q-28.87,26.67-59.18,52.28H995.66c78-130.54,237.32-269.3,355.77-347.31,223-146.9,288.58-70,577.58-224C2231.84,866.93,2253.1,732.85,2481.47,687A782,782,0,0,1,2560.5,675.51Z" stroke="#3977d1" stroke-miterlimit="10" fill="url(#d)"/></svg>