<?xml version="1.0" encoding="utf-8"?>
<!-- Generator: Adobe Illustrator 21.0.2, SVG Export Plug-In . SVG Version: 6.00 Build 0)  -->
<svg version="1.1" id="Layer_1" xmlns="http://www.w3.org/2000/svg" xmlns:xlink="http://www.w3.org/1999/xlink" x="0px" y="0px"
	 viewBox="0 0 34.25 51" style="enable-background:new 0 0 34.25 51;" xml:space="preserve">
<style type="text/css">
	.st0{fill:#FFFFFF;}
</style>
<g>
	<path class="st0" d="M17.125,0C7.6821289,0,0,7.6821289,0,17.125v16.75C0,43.3173828,7.6821289,51,17.125,51
		S34.25,43.3173828,34.25,33.875v-16.75C34.25,7.6821289,26.5678711,0,17.125,0z M32.25,33.875
		C32.25,42.2148438,25.4648438,49,17.125,49S2,42.2148438,2,33.875v-16.75C2,8.7851562,8.7851562,2,17.125,2
		S32.25,8.7851562,32.25,17.125V33.875z"/>
	<path class="st0" d="M17.9858398,40.6265869V29.0317383h0.0249023c2.4467773,0,4.4375-1.9907227,4.4375-4.4375V11.1875
		c0-2.4467773-1.9907227-4.4375-4.4375-4.4375h-2.0493164c-2.4467773,0-4.4375,1.9907227-4.4375,4.4375v13.4067383
		c0,2.4467773,1.9907227,4.4375,4.4375,4.4375h0.0244141v11.5136719l-3.4038086-3.4038086l-1.4140625,1.4140625l5.8583984,5.8583984
		l5.777832-5.7773438l-1.4140625-1.4140625L17.9858398,40.6265869z M20.4482422,11.1875v13.4067383
		c0,1.3442383-1.0932617,2.4375-2.4375,2.4375h-0.0249023V8.75h0.0249023C19.3549805,8.75,20.4482422,9.8432617,20.4482422,11.1875z
		 M15.9614258,27.0317383c-1.3442383,0-2.4375-1.0932617-2.4375-2.4375V11.1875c0-1.3442383,1.0932617-2.4375,2.4375-2.4375
		h0.0244141v18.2817383H15.9614258z"/>
</g>
</svg>
